<svg width="19" height="19" viewBox="0 0 19 19" fill="none" xmlns="http://www.w3.org/2000/svg">
<path d="M9.50008 0C4.25402 0 0 4.36087 0 9.74051C0 14.0441 2.72206 17.6953 6.49673 18.9833C6.97152 19.0734 7.14582 18.772 7.14582 18.5147C7.14582 18.2824 7.13702 17.5151 7.13293 16.7012C4.48999 17.2904 3.9323 15.5519 3.9323 15.5519C3.50015 14.4261 2.87749 14.1267 2.87749 14.1267C2.01555 13.5222 2.94246 13.5346 2.94246 13.5346C3.89644 13.6033 4.39875 14.5383 4.39875 14.5383C5.24606 16.0275 6.62117 15.597 7.16329 15.3481C7.24855 14.7185 7.49476 14.2888 7.76644 14.0456C5.65634 13.7993 3.43817 12.9641 3.43817 9.23178C3.43817 8.16833 3.80928 7.29942 4.417 6.61728C4.31836 6.37195 3.99319 5.38125 4.50903 4.03957C4.50903 4.03957 5.30679 3.77778 7.12223 5.03801C7.88002 4.82219 8.69273 4.71396 9.50008 4.71025C10.3074 4.71396 11.1208 4.82219 11.88 5.03801C13.6932 3.77778 14.4899 4.03957 14.4899 4.03957C15.007 5.38125 14.6816 6.37195 14.583 6.61728C15.1921 7.29942 15.5607 8.16833 15.5607 9.23178C15.5607 12.9729 13.3383 13.7967 11.2229 14.0378C11.5636 14.3401 11.8672 14.9329 11.8672 15.8416C11.8672 17.1449 11.8562 18.1939 11.8562 18.5147C11.8562 18.7739 12.0272 19.0776 12.5088 18.982C16.2814 17.6925 19 14.0427 19 9.74051C19 4.36087 14.7466 0 9.50008 0Z" fill="#848484"/>
<path d="M3.62614 13.9184C3.60526 13.9663 3.53114 13.9807 3.46362 13.9478C3.39485 13.9163 3.35622 13.851 3.37852 13.803C3.39893 13.7536 3.4732 13.7399 3.54182 13.7729C3.61076 13.8044 3.65001 13.8703 3.62614 13.9184Z" fill="#848484"/>
<path d="M4.01023 14.3541C3.965 14.3967 3.8766 14.3769 3.81661 14.3095C3.75459 14.2423 3.74297 14.1524 3.78882 14.1091C3.83546 14.0665 3.92119 14.0864 3.98338 14.1537C4.0454 14.2217 4.05749 14.311 4.01023 14.3541Z" fill="#848484"/>
<path d="M4.3841 14.9096C4.326 14.9506 4.231 14.9121 4.17228 14.8264C4.11418 14.7406 4.11418 14.6377 4.17353 14.5965C4.23242 14.5553 4.326 14.5924 4.38552 14.6775C4.44346 14.7647 4.44346 14.8676 4.3841 14.9096Z" fill="#848484"/>
<path d="M4.89632 15.4462C4.84434 15.5045 4.73364 15.4888 4.65262 15.4093C4.56971 15.3315 4.54662 15.2212 4.59876 15.1629C4.65136 15.1044 4.76269 15.1209 4.84434 15.1998C4.92662 15.2774 4.95175 15.3885 4.89632 15.4462Z" fill="#848484"/>
<path d="M5.60293 15.7578C5.58 15.8333 5.47338 15.8677 5.36598 15.8356C5.25873 15.8025 5.18854 15.714 5.21021 15.6377C5.23251 15.5617 5.3396 15.5259 5.44779 15.5602C5.55488 15.5931 5.62523 15.681 5.60293 15.7578Z" fill="#848484"/>
<path d="M6.37895 15.8156C6.38161 15.8951 6.29054 15.9611 6.1778 15.9625C6.06442 15.9651 5.97272 15.9007 5.97147 15.8225C5.97147 15.7421 6.0605 15.6768 6.17387 15.6749C6.28661 15.6727 6.37895 15.7365 6.37895 15.8156Z" fill="#848484"/>
<path d="M7.1011 15.6905C7.11461 15.7682 7.03625 15.8479 6.92429 15.8691C6.81422 15.8895 6.71231 15.8416 6.69833 15.7646C6.68467 15.6851 6.76444 15.6054 6.87436 15.5848C6.98647 15.565 7.08681 15.6116 7.1011 15.6905Z" fill="#848484"/>
</svg>
