<svg width="25" height="25" viewBox="0 0 25 25" fill="none" xmlns="http://www.w3.org/2000/svg">
<path d="M7.89731 20.8332H4.44193V9.70569H7.89731V20.8332ZM6.16776 8.1878C5.06284 8.1878 4.16663 7.2726 4.16663 6.16766C4.16663 5.06245 5.06256 4.1665 6.16776 4.1665C7.27295 4.1665 8.16889 5.06245 8.16889 6.16766C8.16889 7.2726 7.2723 8.1878 6.16776 8.1878ZM20.8297 20.8332H17.3818V15.4164C17.3818 14.1254 17.3557 12.4699 15.5852 12.4699C13.7887 12.4699 13.5134 13.8724 13.5134 15.3234V20.8332H10.0618V9.70569H13.3758V11.2236H13.4241C13.8854 10.3493 15.0123 9.42667 16.6935 9.42667C20.1906 9.42667 20.8334 11.7295 20.8334 14.7207V20.8332H20.8297Z" fill="#848484"/>
</svg>
