<svg width="512" height="512" viewBox="0 0 512 512" fill="none" xmlns="http://www.w3.org/2000/svg">
<g clip-path="url(#clip0_703_870)">
<path d="M0 128C0 57.3075 57.3075 0 128 0H384C454.693 0 512 57.3075 512 128V384C512 454.693 454.693 512 384 512H128C57.3075 512 0 454.693 0 384V128Z" fill="#FFDD33"/>
<path d="M340.39 97.6H293.912L332.643 165.651L247.434 97.6H200.957L243.562 180.776L154.478 97.6H108L154.478 203.474L108 415.2H154.478L243.562 188.349L200.957 415.2H247.434L332.643 173.224L293.912 415.2H340.39L425.6 150.527L340.39 97.6Z" fill="black"/>
</g>
<defs>
<clipPath id="clip0_703_870">
<rect width="512" height="512" fill="white"/>
</clipPath>
</defs>
</svg>
